#!OML:ASF X:\für Bonn\!DataBase\2005_08_10_Bjorn_Final\c3d\bjorn.ASF
:FULLY-SPECIFIED
:DEGREES
152
root -28.8084 17.2954 -10.7061 -1437.93 4.86122 -13.8154
lowerback 4.47293 1.0529 15.5357
upperback 9.60931 1.10059 4.75503
thorax 8.18364 1.48087 -3.45409
lowerneck -5.31072 9.67995 4.5909
upperneck -0.369795 13.0907 -14.9081
head 2.08825 6.34384 -4.63961
rclavicle -1.0138e-014 3.97569e-016
rhumerus -26.4661 8.96039 -93.7466
rradius 76.5189
rwrist -5.13605
rhand -29.4787 22.8679
rfingers 7.12502
rthumb -2.81402 -7.09328
lclavicle -1.0138e-014 3.97569e-016
lhumerus -50.4066 -24.7184 106.424
lradius 83.1453
lwrist -9.02275
lhand -35.1523 -20.9151
lfingers 7.12502
lthumb -8.29177 8.90222
rfemur -16.9656 -4.33154 21.0676
rtibia 49.9829
rfoot -26.9081 29.8995
rtoes -7.3018
lfemur -25.9884 1.56206 -7.18248
ltibia 91.7775
lfoot -10.1246 4.75629
ltoes -6.61023
153
root -28.7609 17.3041 -10.513 -1437.92 5.17918 -13.6876
lowerback 4.54589 1.40678 15.4158
upperback 9.53111 1.60241 4.68918
thorax 8.13568 1.71665 -3.44679
lowerneck -5.46848 9.46085 4.58597
upperneck -0.206401 12.8071 -14.7756
head 2.12471 6.19222 -4.608
rclavicle -4.39314e-014 -6.12257e-014
rhumerus -25.3374 10.1296 -94.2487
rradius 77.9765
rwrist -4.73881
rhand -29.6229 22.6534
rfingers 7.12502
rthumb -2.95333 -7.3059
lclavicle -4.39314e-014 -6.12257e-014
lhumerus -51.3759 -24.0331 106.19
lradius 83.1621
lwrist -8.98538
lhand -35 -20.6747
lfingers 7.12502
lthumb -8.14478 9.14832
rfemur -15.7823 -4.37597 20.7908
rtibia 49.1043
rfoot -27.1571 29.8845
rtoes -7.17038
lfemur -28.1726 2.36337 -7.58591
ltibia 91.8825
lfoot -11.3812 4.8119
ltoes -7.64143
154
root -28.7101 17.3279 -10.318 -1437.84 5.49991 -13.3197
lowerback 4.55526 1.786 15.0387
upperback 9.46945 2.12741 4.54762
thorax 8.1279 1.95233 -3.37943
lowerneck -5.59523 9.22864 4.53287
upperneck -0.101445 12.498 -14.5613
head 2.1278 6.03321 -4.54972
rclavicle -2.96189e-014 -1.59028e-015
rhumerus -24.2798 11.3286 -94.6231
rradius 79.2987
rwrist -4.41929
rhand -29.6709 22.4808
rfingers 7.12502
rthumb -2.99964 -7.4779
lclavicle -2.96189e-014 -1.59028e-015
lhumerus -52.2779 -23.4252 105.848
lradius 83.2739
lwrist -9.05124
lhand -34.9136 -20.5477
lfingers 7.12502
lthumb -8.06141 9.27852
rfemur -14.6122 -4.34 20.2516
rtibia 48.1422
rfoot -27.3023 29.7874
rtoes -7.19744
lfemur -30.2985 3.12481 -8.37231
ltibia 91.6632
lfoot -12.3429 4.93921
ltoes -9.18002
155
root -28.6546 17.3663 -10.1198 -1437.69 5.83068 -12.7868
lowerback 4.49597 2.17207 14.426
upperback 9.39283 2.65069 4.40259
thorax 8.11705 2.16993 -3.18658
lowerneck -5.69509 8.98563 4.40523
upperneck -0.00502434 12.1773 -14.3226
head 2.11745 5.87041 -4.4749
rclavicle 4.4329e-014 5.56597e-014
rhumerus -23.3289 12.5387 -94.8862
rradius 80.4113
rwrist -4.24425
rhand -29.5927 22.5141
rfingers 7.12502
rthumb -2.92413 -7.44565
lclavicle 4.4329e-014 5.56597e-014
lhumerus -53.1736 -22.8377 105.545
lradius 83.4843
lwrist -9.13866
lhand -34.9693 -20.5142
lfingers 7.12502
lthumb -8.1151 9.30996
rfemur -13.433 -4.26063 19.5442
rtibia 47.0585
rfoot -27.5492 29.4324
rtoes -8.11748
lfemur -32.3982 3.84391 -9.45805
ltibia 91.1585
lfoot -12.9547 5.18542
ltoes -11.209
156
root -28.5946 17.4185 -9.91814 -1437.48 6.15093 -12.1332
lowerback 4.41554 2.57938 13.6931
upperback 9.28746 3.2054 4.20281
thorax 8.07568 2.39478 -2.98522
lowerneck -5.74301 8.71455 4.34832
upperneck 0.140319 11.82 -14.0921
head 2.11559 5.6893 -4.41658
rclavicle 5.26779e-014 -2.38542e-014
rhumerus -22.5966 13.5639 -95.2534
rradius 81.4521
rwrist -4.08612
rhand -29.328 22.8934
rfingers 7.12502
rthumb -2.66844 -7.06967
lclavicle 5.26779e-014 -2.38542e-014
lhumerus -53.961 -22.3511 105.209
lradius 83.6768
lwrist -9.2008
lhand -35.0772 -20.6387
lfingers 7.12502
lthumb -8.21927 9.18146
rfemur -12.1624 -4.0159 18.7368
rtibia 45.7734
rfoot -27.6073 28.9113
rtoes -9.01286
lfemur -34.463 4.49203 -10.7951
ltibia 90.3802
lfoot -13.3918 5.61196
ltoes -12.6121
